<?xml version="1.0" encoding="UTF-8"?>
<svg id="Layer_1" data-name="Layer 1" xmlns="http://www.w3.org/2000/svg" viewBox="0 0 106.69 106.16">
  <defs>
    <style>
      .cls-1 {
        fill: #231815;
      }

      .cls-2 {
        fill: #01ff42;
      }

      .cls-3 {
        fill: none;
        stroke: #231815;
        stroke-linecap: round;
        stroke-miterlimit: 10;
        stroke-width: 1.9px;
      }

      .cls-4 {
        fill: #d1d0d0;
      }
    </style>
  </defs>
  <g id="_電仔獸_B_本體" data-name=" 電仔獸 B 本體">
    <g>
      <path class="cls-2" d="M82.79,22.98l-12.2,1.6c-.6,0-1,.6-.9,1.2l1.4,5.3c.2.7-.2,1.4-.8,1.6l-5.6,1.9c-11.7-7.6-26.7-6-34.6,4.2-8.4,10.7-5.6,26.8,6.3,36,11.8,9.2,28.2,8,36.5-2.7,8.1-10.4,5.7-25.8-5.2-35.1.7-.2,1.4-.4,2.1-.5l5.9-.6c.5,0,.9-.5.9-1.1l-.5-5.9,7.1-4.9c.8-.6.2-1.1-.5-1.1h0l.1.1Z"/>
      <path class="cls-3" d="M39.79,56.58s.6,5.1,5,7.9c4.5,2.9,7.7,2.6,7.7,2.6"/>
      <g>
        <ellipse class="cls-4" cx="48.98" cy="47.15" rx="7.2" ry="4.7" transform="translate(-18.58 54.72) rotate(-50.3)"/>
        <ellipse class="cls-1" cx="49.78" cy="46.68" rx="2.8" ry="1.8" transform="translate(-17.93 55.16) rotate(-50.3)"/>
        <ellipse class="cls-4" cx="54.66" cy="51.7" rx="7.2" ry="4.7" transform="translate(-20.03 60.73) rotate(-50.3)"/>
        <ellipse class="cls-1" cx="55.54" cy="51.39" rx="2.8" ry="1.8" transform="translate(-19.48 61.3) rotate(-50.3)"/>
        <ellipse class="cls-4" cx="60.6" cy="56.59" rx="7.2" ry="4.7" transform="translate(-21.65 67.07) rotate(-50.3)"/>
        <ellipse class="cls-1" cx="61.38" cy="56.28" rx="2.8" ry="1.8" transform="translate(-21.13 67.56) rotate(-50.3)"/>
      </g>
    </g>
  </g>
</svg>