<?xml version="1.0" encoding="UTF-8"?>
<svg id="Layer_1" data-name="Layer 1" xmlns="http://www.w3.org/2000/svg" viewBox="0 0 119.73 117.27">
  <defs>
    <style>
      .cls-1 {
        fill: #fff;
        isolation: isolate;
        opacity: .5;
      }
    </style>
  </defs>
  <g id="_電仔獸_C_光暈1" data-name=" 電仔獸 C 光暈1">
    <path class="cls-1" d="M113.23,75.22c-.02-.05-.04-.11-.06-.16.1-.14.19-.28.29-.42l.22-.32h0c1.28-1.85,1.37-4.16.24-6.18-.17-.31-.35-.6-.53-.88l.13-.3.14-.34c1.03-2.35.52-4.88-1.36-6.76l-.33-.33c.05-.24.09-.48.13-.72.49-2.84-.77-5.34-3.28-6.51,0,0-.02,0-.03,0,.23-3.23-1.53-5.6-4.71-6.34h0c-.29-1.7-1.39-4.62-5.47-5.01-.21-.02-.4-.04-.58-.05-.05-.1-.11-.21-.18-.34-1.27-2.5-3.79-3.73-6.57-3.19-.11.02-.22.04-.34.06l-.1-.11-.25-.27c-1.72-1.91-4.2-2.52-6.61-1.64-.27.1-.53.2-.8.31-2.73-1.95-5.29-1.94-7.81.03-1.12-.54-2.28-.76-3.39-.67-.13-.2-.25-.41-.38-.61-.21-.33-.42-.67-.63-1,.49-.44.99-.88,1.48-1.32l2.16-1.93c.71-.63,1.41-1.25,2.1-1.89,1.13-1.04,1.77-2.39,1.8-3.79.03-1.36-.5-2.66-1.5-3.67-.77-.78-1.55-1.55-2.33-2.32l-8.41-8.39c-1.18-1.18-2.36-2.36-3.54-3.53-2.04-2.02-5-2.15-7.03-.33-.76.68-2.4,2.6-1.29,5.75l1.52,4.32c.72,2.05,1.44,4.11,2.17,6.16-1.46,1.71-2.9,3.43-4.35,5.15l-.79.94c-1.96,2.33-1.77,5.25.48,7.27,1.54,1.39,3.08,2.77,4.63,4.14l.68.6c-2,.39-3.53,1.65-4.25,3.55-.09.23-.18.46-.28.69-.32.07-.62.14-.9.21-2.24.54-3.89,2.21-4.41,4.46l-.02.1c-.05.22-.11.47-.16.74-.4.16-.8.34-1.2.55-1.88.97-3.03,2.73-3.15,4.8v.21c-.03.24-.05.52-.05.85-2.83,1.74-3.71,3.74-3.13,7.11-.05.05-.1.1-.15.15-1-.77-2-1.54-2.99-2.32-1.18-.91-2.35-1.82-3.53-2.73-2.52-1.94-5.44-1.6-7.45.85l-.49.6c-1.49,1.83-2.98,3.65-4.47,5.49-2.24-.35-4.48-.69-6.72-1.03l-4.32-.66c-3.04-.46-4.91,1.2-5.65,2.91-1.01,2.31-.24,4.77,1.94,6.27.81.56,1.62,1.12,2.44,1.68l2.99,2.07c1.45,1,2.9,2,4.35,3,.79.54,1.59,1.08,2.38,1.63,1.37.93,2.73,1.86,4.08,2.8,1.75,1.22,3.31,1.22,4.31,1.01.99-.21,2.39-.83,3.44-2.59,1.28-2.14,2.57-4.28,3.87-6.43,1.07.43,2.15.85,3.24,1.28,0,.02.02.05.03.07.24.53.52.98.76,1.35-1.31,2.7-.99,5,1,7.22.14.16.29.32.45.48-.06.33-.12.68-.18,1.06-.34,2.13.5,4.17,2.24,5.45l.17.12c.25.19.54.4.88.62,0,.24.02.47.04.67l.02.25c.14,2.32,1.52,4.23,3.71,5.09.33.13.66.25.98.36.85,3.24,2.72,4.81,6.05,5.06.02.04.05.09.08.13,1.58,2.93,3.96,4.03,7.04,3.28h.03s.03.04.05.07c1.27,1.65,3.56,3.31,7.32,1.85.09-.03.2-.08.32-.13,1.27.94,2.56,1.41,3.86,1.41s2.64-.48,3.98-1.43c2.77,1.24,5.26.76,7.4-1.4.09-.09.18-.18.26-.27.34.06.71.11,1.11.16,2.14.26,4.16-.62,5.39-2.35.21-.3.42-.6.62-.92,3.3.08,5.46-1.4,6.38-4.43,3.19-.37,5.12-2.31,5.45-5.48,2.91-.83,4.65-3.35,4.4-6.38,2.62-1.32,3.85-4.02,3.18-7.01,0-.03,0-.06-.01-.09.17-.14.33-.3.5-.46,1.83-1.77,2.36-4.25,1.42-6.65l-.13-.33-.04-.02Z"/>
  </g>
</svg>