<?xml version="1.0" encoding="UTF-8"?>
<svg id="Layer_1" data-name="Layer 1" xmlns="http://www.w3.org/2000/svg" viewBox="0 0 60.5 60.25">
  <defs>
    <style>
      .cls-1 {
        fill: #fff;
        isolation: isolate;
        opacity: .5;
      }
    </style>
  </defs>
  <g id="_電仔獸_B_光暈1" data-name=" 電仔獸 B 光暈1">
    <path class="cls-1" d="M55.19,7.81c-.72-1.85-2.68-2.99-4.74-2.78-.04,0-.07,0-.11.01l-8.92,1.19c-1.3.17-2.48.88-3.23,1.95-.76,1.07-1.04,2.42-.77,3.7.02.08.03.15.05.23l.21.76c-9.97-5.28-21.8-3.26-28.36,5.16-7.42,9.53-5.04,23.83,5.29,31.88,4.47,3.48,9.83,5.35,15.25,5.35.58,0,1.17-.02,1.75-.07,6.16-.46,11.56-3.29,15.2-7.96,5.63-7.23,5.65-17.24.72-25.18,1.75-.76,2.93-2.53,2.86-4.52,0-.07,0-.13,0-.2l-.17-2.01,3.26-2.24s.08-.06.13-.09c1.67-1.25,2.31-3.33,1.59-5.18Z"/>
  </g>
</svg>