<?xml version="1.0" encoding="UTF-8"?>
<svg xmlns="http://www.w3.org/2000/svg" viewBox="0 0 60.49 60.25">
  <defs>
    <style>
      .cls-1 {
        opacity: .5;
      }

      .cls-1, .cls-2 {
        fill: #fff;
      }

      .cls-2 {
        opacity: .3;
      }

      .cls-3 {
        fill: #231815;
      }

      .cls-4 {
        fill: #01ff42;
      }

      .cls-5 {
        fill: none;
        stroke: #231815;
        stroke-linecap: round;
        stroke-miterlimit: 10;
        stroke-width: 1.85px;
      }

      .cls-6 {
        fill: #d1d0d0;
      }
    </style>
  </defs>
  <g id="_電仔獸_B_光暈2" data-name="電仔獸_B_光暈2">
    <path class="cls-2" d="M59.85,5.98C58.3,2.04,54.23-.4,49.93.05c-.08,0-.17.02-.25.03l-8.92,1.19c-2.67.36-5.09,1.82-6.65,4.02-.15.21-.29.43-.43.66-10.51-2.82-21.6.4-28.3,9.01C-3.74,26.66-.98,44.11,11.54,53.85c5.35,4.17,11.79,6.4,18.32,6.4.71,0,1.42-.03,2.13-.08,7.59-.57,14.26-4.07,18.78-9.88,6.09-7.82,6.91-18.21,2.98-27.18,1.03-1.53,1.64-3.36,1.66-5.31l.91-.62c.1-.07.19-.13.28-.2,3.5-2.61,4.81-7.03,3.25-11Z"/>
  </g>
  <g id="_電仔獸_B_光暈1" data-name="電仔獸_B_光暈1">
    <path class="cls-1" d="M55.19,7.81c-.72-1.85-2.68-2.99-4.74-2.78-.04,0-.07,0-.11.01l-8.92,1.19c-1.3.17-2.48.88-3.23,1.95-.76,1.07-1.04,2.42-.77,3.7.02.08.03.15.05.23l.21.76c-9.97-5.28-21.8-3.26-28.36,5.16-7.42,9.53-5.04,23.83,5.29,31.88,4.47,3.48,9.83,5.35,15.25,5.35.58,0,1.17-.02,1.75-.07,6.16-.46,11.56-3.29,15.2-7.96,5.63-7.23,5.65-17.24.72-25.18,1.75-.76,2.93-2.53,2.86-4.52,0-.07,0-.13-.01-.2l-.17-2.01,3.26-2.24s.08-.06.13-.09c1.67-1.25,2.31-3.33,1.59-5.18Z"/>
  </g>
  <g id="_電仔獸_B_本體" data-name="電仔獸_B_本體">
    <g>
      <path class="cls-4" d="M50.86,9l-8.92,1.19c-.42.06-.7.45-.62.87l1.05,3.88c.13.49-.13,1-.61,1.16l-4.11,1.41c-8.46-5.59-19.43-4.41-25.19,2.98-6.07,7.8-4.02,19.56,4.59,26.27,8.61,6.71,20.52,5.82,26.59-1.98,5.87-7.54,4.12-18.78-3.78-25.58.5-.16,1.01-.29,1.54-.34l4.31-.43c.39-.04.69-.37.67-.77l-.36-4.33,5.17-3.56c.57-.42.16-.83-.34-.77Z"/>
      <path class="cls-5" d="M19.55,33.47s.42,3.68,3.65,5.76c3.25,2.1,5.62,1.92,5.62,1.92"/>
      <g>
        <ellipse class="cls-6" cx="26.28" cy="26.52" rx="5.24" ry="3.42" transform="translate(-10.91 29.83) rotate(-50.34)"/>
        <ellipse class="cls-3" cx="26.87" cy="26.25" rx="2.06" ry="1.34" transform="translate(-10.49 30.18) rotate(-50.34)"/>
        <ellipse class="cls-6" cx="30.39" cy="29.93" rx="5.24" ry="3.42" transform="translate(-12.05 34.22) rotate(-50.34)"/>
        <ellipse class="cls-3" cx="30.98" cy="29.66" rx="2.06" ry="1.34" transform="translate(-11.62 34.57) rotate(-50.34)"/>
        <ellipse class="cls-6" cx="34.7" cy="33.5" rx="5.24" ry="3.42" transform="translate(-13.24 38.83) rotate(-50.34)"/>
        <ellipse class="cls-3" cx="35.28" cy="33.23" rx="2.06" ry="1.34" transform="translate(-12.82 39.18) rotate(-50.34)"/>
      </g>
    </g>
  </g>
</svg>