<?xml version="1.0" encoding="UTF-8"?>
<svg xmlns="http://www.w3.org/2000/svg" viewBox="0 0 110.83 89.48">
  <defs>
    <style>
      .cls-1 {
        fill: #d0d0d0;
      }

      .cls-2 {
        opacity: .5;
      }

      .cls-2, .cls-3 {
        fill: #fff;
      }

      .cls-4 {
        fill: #4d4d4d;
      }

      .cls-5 {
        fill: #02fe42;
      }

      .cls-6 {
        opacity: .3;
      }
    </style>
  </defs>
  <g id="_電仔獸_A_光暈2" data-name="電仔獸_A_光暈2" class="cls-6">
    <path class="cls-3" d="M105.95,41.35c-.89-.71-1.78-1.42-2.66-2.14-1.99-1.6-4.02-3.24-6.11-4.84.73-1.48,1.43-2.94,2.11-4.38.51-1.08,1.03-2.16,1.55-3.23,1.51-3.1,1.11-6.79-1.02-9.5l-.52-.66c-2.33-2.95-6.25-4.15-9.83-2.99-.66.21-1.32.42-1.98.63.03-5.96-3.27-8.6-5.24-9.65-1.97-1.05-6.01-2.31-10.93,1.05-1.07.73-2.16,1.44-3.25,2.15-1.13.74-2.29,1.49-3.45,2.28-1.19-.98-2.37-1.93-3.53-2.85-1.71-1.37-3.33-2.66-4.87-3.99-3.06-2.66-6.31-3.67-9.66-3.03-3.35.65-5.97,2.77-7.8,6.32-1.27,2.46-2.59,4.87-3.99,7.42-.59,1.08-1.19,2.17-1.78,3.25-2.13-.27-4.25-.5-6.32-.73-1.92-.21-3.83-.42-5.75-.66-5.51-.68-8.52,1.92-9.83,3.54-1.31,1.61-3.23,5.08-1.46,10.23.49,1.42.95,2.84,1.41,4.27.29.92.59,1.85.9,2.79-1.92,1.32-3.83,2.66-5.69,3.96l-.55.39C-1.13,44.71-.05,51.03.24,52.28c.44,1.88,2.15,6.39,8.47,7.68.92.29,1.83.59,2.75.89.81.26,1.62.53,2.45.79-1.22,2.81-2.4,5.62-3.56,8.37l-.71,1.68c-4,6.47-.49,11.21.69,12.52,1.43,1.59,5.5,5.01,12.27,2.31l2.04-.66c5.24-1.69,10.64-3.42,16.03-5.22.62.64,1.22,1.24,1.79,1.81.9.9,1.75,1.74,2.46,2.55,2.57,2.93,5.55,4.44,8.85,4.48.05,0,.1,0,.16,0,3.25,0,6.22-1.42,8.83-4.23,1.73-1.86,3.6-3.66,5.58-5.56.56-.54,1.13-1.08,1.7-1.64.43.17.84.33,1.25.49,1.04.4,2.02.78,2.87,1.18,4.06,1.87,7.29,1.2,9.29.3,1.99-.9,4.65-2.86,5.95-7.16.74-2.45,1.56-4.87,2.43-7.44l.42-1.25c2.75-1.12,5.47-2.28,8.12-3.4l3-1.27c6.18-1.78,7.23-6.92,7.4-8.49.2-1.84.14-6.42-4.83-9.66Z"/>
  </g>
  <g id="_電仔獸_A_光暈1" data-name="電仔獸_A_光暈1">
    <path class="cls-2" d="M103.12,45.48l-.09-.06c-.96-.77-1.92-1.54-2.89-2.32-3.01-2.43-6.12-4.93-9.36-7.25.01-.02.02-.05.04-.07,1.41-2.63,2.7-5.33,3.94-7.95.47-.98.93-1.96,1.4-2.93.77-1.59.57-3.49-.53-4.88h0c-1.2-1.52-3.21-2.14-5.05-1.54-.86.28-1.71.55-2.57.82-1.76.56-3.56,1.13-5.36,1.73-.02-.44-.03-.88-.05-1.33-.07-1.9-.13-3.7-.12-5.5.02-2.54-.85-4.3-2.58-5.22-1.73-.92-3.67-.66-5.77.77-1.1.75-2.22,1.48-3.34,2.21-2.03,1.32-4.13,2.69-6.15,4.2-.12.09-.23.16-.31.22-.07-.06-.15-.12-.25-.21-2-1.79-4.09-3.46-6.11-5.07-1.75-1.4-3.41-2.72-5.02-4.12-.76-.66-2.77-2.41-5.44-1.89-2.66.51-3.89,2.91-4.3,3.7-1.3,2.52-2.7,5.07-4.05,7.54-1.07,1.95-2.14,3.91-3.18,5.88-.12.23-.38.36-.64.33-3.08-.44-6.19-.79-9.2-1.12-1.94-.21-3.88-.43-5.82-.67-.88-.11-3.57-.44-5.33,1.72-1.16,1.43-1.37,3.27-.62,5.45.5,1.45.97,2.91,1.44,4.37.62,1.91,1.25,3.88,1.96,5.84.1.27,0,.57-.24.73-2.84,1.91-5.66,3.88-8.39,5.8l-.76.54c-.06.04-.13.07-.2.11-3.42,1.84-3.39,4.44-3.07,5.83.49,2.09,2.05,3.41,4.63,3.93.09.02.18.03.22.04,1.02.32,2.03.66,3.05.99,2.3.75,4.66,1.52,7.05,2.21.37.11.55.51.4.86-1.9,4.27-3.73,8.59-5.5,12.8l-.85,2.01-.07.13c-2.24,3.42-.95,5.72,0,6.78,1.62,1.8,3.88,2.14,6.71,1.01.12-.05.23-.1.34-.13l2.01-.65c6.04-1.94,12.29-3.95,18.43-6.03.34-.11.55-.16.67-.18.05.05.11.11.19.21,1.15,1.38,2.39,2.61,3.59,3.79.97.96,1.88,1.86,2.7,2.8,1.03,1.18,2.69,2.75,5.16,2.78.03,0,.05,0,.08,0,2.72,0,4.56-1.98,5.17-2.63,1.82-1.97,3.75-3.81,5.78-5.77,1.23-1.18,2.5-2.4,3.74-3.65.19-.19.47-.23.71-.12,1.27.59,2.53,1.08,3.77,1.56,1.11.43,2.16.84,3.16,1.3,1.89.87,3.62.97,5.14.28,2.3-1.03,2.99-3.3,3.21-4.05.77-2.52,1.63-5.1,2.47-7.59.34-1.01.68-2.03,1.02-3.04.06-.17.1-.29.13-.38,3.42-1.37,6.86-2.82,10.18-4.23l3.31-1.4.06-.02c3.17-.83,3.88-3.04,4.02-4.29.16-1.41-.18-3.42-2.69-4.98Z"/>
  </g>
  <g id="_電仔獸_A_本體" data-name="電仔獸_A_本體">
    <path class="cls-5" d="M100.6,48.6c-4.05-3.22-8.02-6.55-12.22-9.55-2.2-1.57-2.25-2.98-1.08-5.16,1.94-3.62,3.64-7.38,5.44-11.08-.17-.22-.34-.43-.51-.65-3.28,1.06-6.59,2.07-9.85,3.19-3.56,1.22-3.58,1.23-3.67-2.43-.07-2.91-.24-5.83-.22-8.74.01-1.93-.59-2.15-2.1-1.12-3.11,2.12-6.34,4.05-9.34,6.31-2.09,1.57-3.62,1.59-5.63-.21-3.57-3.19-7.48-6.01-11.1-9.15-1.67-1.45-2.52-1.41-3.56.62-2.41,4.68-5.04,9.25-7.49,13.91-.91,1.73-2.01,2.33-4.03,2.03-5.12-.76-10.28-1.21-15.41-1.84-1.63-.2-2.27.13-1.67,1.89,1.26,3.64,2.33,7.35,3.67,10.96.68,1.82.37,2.99-1.23,4.06-3.36,2.24-6.67,4.57-9.98,6.89-.66.46-1.83.75-1.61,1.7.2.86,1.38.82,2.17,1.07,4.04,1.29,8.05,2.68,12.14,3.77,2.38.64,2.65,1.62,1.69,3.74-2.52,5.57-4.88,11.21-7.26,16.84-.35.83-1.41,1.78-.72,2.54.73.81,1.92.05,2.86-.25,6.8-2.19,13.61-4.37,20.38-6.66,2.11-.71,3.68-.59,5.22,1.26,1.92,2.3,4.24,4.27,6.22,6.52,1.58,1.8,2.71,1.96,4.47.07,3.19-3.44,6.72-6.57,10.03-9.92,1.29-1.3,2.42-1.72,4.2-.83,2.43,1.22,5.07,2.02,7.55,3.16,1.61.74,2.34.39,2.85-1.3,1.09-3.6,2.34-7.16,3.53-10.73.39-1.17.84-2.19,2.18-2.73,4.63-1.85,9.21-3.82,13.81-5.76.58-.24,1.44-.2,1.53-1.01.09-.78-.74-1.03-1.23-1.42Z"/>
    <path class="cls-1" d="M60.08,38.39c-2.15-5.54-9.65-7.37-13.5-2.22-1.1,1.48-1.89.42-2.8-.14-3.96-2.43-7.98-1.75-10.51,1.71-1.94,2.66-2.63,5.65-2.11,8.82.63,3.91,2.45,7.13,6.37,8.64,3.47,1.34,6.25-.02,8.56-2.57,1.09-1.21,1.76-.3,2.61.23,4.34,2.73,8.77,1.67,11.29-2.79,2.03-3.6,2.08-7.33.09-11.7Z"/>
    <path class="cls-4" d="M51.06,37.72c1.79-.58,3.18.46,4.09,2.32,1.11,2.27.27,5.69-1.65,6.46-2.18.88-3.6-.29-4.5-2.16-1.14-2.37-.29-5.5,2.06-6.62Z"/>
    <path class="cls-4" d="M41.37,41.08c1.17,2.46.39,5.9-1.39,6.85-1.52.8-3.79-.21-4.63-2.08-1.08-2.39-.25-5.57,1.75-6.45,2.12-.93,3.34.32,4.28,1.68Z"/>
  </g>
</svg>