<?xml version="1.0" encoding="UTF-8"?>
<svg id="Layer_1" data-name="Layer 1" xmlns="http://www.w3.org/2000/svg" viewBox="0 0 60.5 60.25">
  <defs>
    <style>
      .cls-1 {
        fill: #fff;
        isolation: isolate;
        opacity: .3;
      }
    </style>
  </defs>
  <g id="_電仔獸_B_光暈2" data-name=" 電仔獸 B 光暈2">
    <path class="cls-1" d="M59.85,5.98C58.3,2.04,54.23-.4,49.93.05c-.08,0-.17.02-.25.03l-8.92,1.19c-2.67.36-5.09,1.82-6.65,4.02-.15.21-.29.43-.43.66-10.51-2.82-21.6.4-28.3,9.01C-3.74,26.66-.98,44.11,11.54,53.85c5.35,4.17,11.79,6.4,18.32,6.4.71,0,1.42-.03,2.13-.08,7.59-.57,14.26-4.07,18.78-9.88,6.09-7.82,6.91-18.21,2.98-27.18,1.03-1.53,1.64-3.36,1.66-5.31l.91-.62c.1-.07.19-.13.28-.2,3.5-2.61,4.81-7.03,3.25-11Z"/>
  </g>
</svg>