<?xml version="1.0" encoding="UTF-8"?>
<svg id="Layer_1" data-name="Layer 1" xmlns="http://www.w3.org/2000/svg" viewBox="0 0 106.69 106.16">
  <defs>
    <style>
      .cls-1 {
        fill: #fff;
        isolation: isolate;
        opacity: .5;
      }
    </style>
  </defs>
  <g id="_電仔獸_B_光暈1" data-name=" 電仔獸 B 光暈1">
    <path class="cls-1" d="M89.48,20.74c-1-2.58-3.74-4.17-6.61-3.88-.06,0-.1,0-.15.01l-12.44,1.66c-1.81.24-3.46,1.23-4.5,2.72-1.06,1.49-1.45,3.37-1.07,5.16.03.11.04.21.07.32l.29,1.06c-13.9-7.36-30.4-4.55-39.55,7.2-10.35,13.29-7.03,33.23,7.38,44.45,6.23,4.85,13.71,7.46,21.27,7.46.81,0,1.63-.03,2.44-.1,8.59-.64,16.12-4.59,21.2-11.1,7.85-10.08,7.88-24.04,1-35.11,2.44-1.06,4.09-3.53,3.99-6.3v-.28l-.24-2.8,4.55-3.12s.11-.08.18-.13c2.33-1.74,3.22-4.64,2.22-7.22h-.01Z"/>
  </g>
</svg>