<?xml version="1.0" encoding="UTF-8"?>
<svg xmlns="http://www.w3.org/2000/svg" viewBox="0 0 119.71 117.26">
  <defs>
    <style>
      .cls-1 {
        fill: #d0d0d0;
      }

      .cls-2 {
        opacity: .5;
      }

      .cls-2, .cls-3 {
        fill: #fff;
      }

      .cls-3 {
        opacity: .31;
      }

      .cls-4 {
        fill: #02fe42;
      }

      .cls-5 {
        fill: #333;
      }
    </style>
  </defs>
  <g id="_電仔獸_C_光暈2" data-name="電仔獸_C_光暈2">
    <path class="cls-3" d="M118.86,66.85c.78-3.07.18-6.26-1.65-8.89.1-3.32-1.2-6.35-3.59-8.45-.61-3.24-2.57-5.86-5.51-7.38-1.35-2.93-3.85-5.01-7.07-5.84-2.04-2.56-5.03-4.02-8.3-4.06-2.58-1.96-5.81-2.68-8.99-1.97-.56-.25-1.13-.46-1.7-.62.93-1.52,1.44-3.24,1.48-5.02.06-2.73-.99-5.32-2.96-7.31-.78-.79-1.57-1.57-2.36-2.35l-8.39-8.37c-1.19-1.19-2.37-2.37-3.56-3.55-3.92-3.87-9.89-4.08-13.88-.5-1.18,1.05-4.85,4.97-2.67,11.14l1.52,4.31c.4,1.15.81,2.31,1.22,3.46-.84.99-1.67,1.98-2.5,2.98l-.79.94c-3.7,4.4-3.3,10.37.96,14.21.27.24.53.48.8.72-.08.12-.16.24-.23.37-2.85,1.11-5.03,3.31-6.15,6.21-2.64,1.62-4.43,4.24-4.97,7.24-.49.44-.93.91-1.31,1.4-.22-.17-.44-.34-.66-.51-4.71-3.63-10.62-2.95-14.38,1.65l-.49.6c-.89,1.09-1.78,2.18-2.67,3.27-1.3-.2-2.6-.4-3.89-.59l-4.31-.66c-4.81-.74-9.12,1.56-11,5.85-1.95,4.47-.43,9.56,3.69,12.39.81.55,1.61,1.11,2.42,1.67l3,2.07c1.45,1,2.91,2.01,4.36,3.01.8.55,1.6,1.09,2.4,1.64,1.35.92,2.7,1.83,4.03,2.77,3.39,2.37,6.6,2.14,8.22,1.8,2.2-.47,4.15-1.67,5.64-3.44.25.49.54.97.87,1.44-.13,3.21,1.18,6.29,3.6,8.42.63,3.2,2.64,5.91,5.55,7.45,1.42,3.01,3.8,4.99,7.02,5.84,2.12,2.64,5.02,4.06,8.27,4.08,2.51,1.98,5.63,2.68,8.91,1.98,1.46.67,2.96,1.01,4.48,1.01,1.53,0,3.06-.34,4.56-1.02,3.1.65,6.12,0,8.73-1.88,3.14.08,6.09-1.21,8.17-3.54,3.12-.58,5.63-2.31,7.23-4.94,2.94-1.1,5.12-3.28,6.2-6.21,2.61-1.61,4.38-4.19,4.95-7.21,2.26-2.05,3.52-4.92,3.53-8.05,1.87-2.49,2.57-5.59,1.97-8.65,1.36-2.78,1.45-6,.23-8.9Z"/>
  </g>
  <g id="_電仔獸_C_光暈1" data-name="電仔獸_C_光暈1">
    <path class="cls-2" d="M113.25,75.21c-.02-.05-.04-.11-.06-.16.1-.14.19-.28.29-.42l.22-.32s0,0,0,0c1.28-1.85,1.37-4.16.24-6.18-.17-.31-.35-.6-.53-.88l.13-.3.14-.34c1.03-2.35.52-4.88-1.36-6.76-.11-.11-.22-.22-.33-.33.05-.24.09-.48.13-.72.49-2.84-.77-5.34-3.28-6.51,0,0-.02,0-.03-.01.23-3.23-1.53-5.6-4.71-6.34,0,0,0,0,0,0-.29-1.7-1.39-4.62-5.47-5.01-.21-.02-.4-.04-.58-.05-.05-.1-.11-.21-.18-.34-1.27-2.5-3.79-3.73-6.57-3.19-.11.02-.22.04-.34.06l-.1-.11-.25-.27c-1.72-1.91-4.2-2.52-6.61-1.64-.27.1-.53.2-.8.31-2.73-1.95-5.29-1.94-7.81.03-1.12-.54-2.28-.76-3.39-.67-.13-.2-.25-.41-.38-.61-.21-.33-.42-.67-.63-1,.49-.44.99-.88,1.48-1.32l2.16-1.93c.71-.63,1.41-1.25,2.1-1.89,1.13-1.04,1.77-2.39,1.8-3.79.03-1.36-.5-2.66-1.5-3.67-.77-.78-1.55-1.55-2.33-2.32l-8.41-8.39c-1.18-1.18-2.36-2.36-3.54-3.53-2.04-2.02-5-2.15-7.03-.33-.76.68-2.4,2.6-1.29,5.75l1.52,4.32c.72,2.05,1.44,4.11,2.17,6.16-1.46,1.71-2.9,3.43-4.35,5.15l-.79.94c-1.96,2.33-1.77,5.25.48,7.27,1.54,1.39,3.08,2.77,4.63,4.14l.68.6c-2,.39-3.53,1.65-4.25,3.55-.09.23-.18.46-.28.69-.32.07-.62.14-.9.21-2.24.54-3.89,2.21-4.41,4.46l-.02.1c-.05.22-.11.47-.16.74-.4.16-.8.34-1.2.55-1.88.97-3.03,2.73-3.15,4.8v.21c-.03.24-.05.52-.05.85-2.83,1.74-3.71,3.74-3.13,7.11-.05.05-.1.1-.15.15-1-.77-2-1.54-2.99-2.32-1.18-.91-2.35-1.82-3.53-2.73-2.52-1.94-5.44-1.6-7.45.85l-.49.6c-1.49,1.83-2.98,3.65-4.47,5.49-2.24-.35-4.48-.69-6.72-1.03l-4.32-.66c-3.04-.46-4.91,1.2-5.65,2.91-1.01,2.31-.24,4.77,1.94,6.27.81.56,1.62,1.12,2.44,1.68l2.99,2.07c1.45,1,2.9,2,4.35,3,.79.54,1.59,1.08,2.38,1.63,1.37.93,2.73,1.86,4.08,2.8,1.75,1.22,3.31,1.22,4.31,1.01.99-.21,2.39-.83,3.44-2.59,1.28-2.14,2.57-4.28,3.87-6.43,1.07.43,2.15.85,3.24,1.28.01.02.02.05.03.07.24.53.52.98.76,1.35-1.31,2.7-.99,5,1,7.22.14.16.29.32.45.48-.06.33-.12.68-.18,1.06-.34,2.13.5,4.17,2.24,5.45l.17.12c.25.19.54.4.88.62,0,.24.02.47.04.67l.02.25c.14,2.32,1.52,4.23,3.71,5.09.33.13.66.25.98.36.85,3.24,2.72,4.81,6.05,5.06.02.04.05.09.08.13,1.58,2.93,3.96,4.03,7.04,3.28,0,0,.02,0,.03,0,.02.02.03.04.05.07,1.27,1.65,3.56,3.31,7.32,1.85.09-.03.2-.08.32-.13,1.27.94,2.56,1.41,3.86,1.41s2.64-.48,3.98-1.43c2.77,1.24,5.26.76,7.4-1.4.09-.09.18-.18.26-.27.34.06.71.11,1.11.16,2.14.26,4.16-.62,5.39-2.35.21-.3.42-.6.62-.92,3.3.08,5.46-1.4,6.38-4.43,3.19-.37,5.12-2.31,5.45-5.48,2.91-.83,4.65-3.35,4.4-6.38,2.62-1.32,3.85-4.02,3.18-7.01,0-.03,0-.06-.01-.09.17-.14.33-.3.5-.46,1.83-1.77,2.36-4.25,1.42-6.65l-.13-.33Z"/>
  </g>
  <g id="_電仔獸_C_本體" data-name="電仔獸_C_本體">
    <g>
      <path class="cls-4" d="M110.4,72.03c.44-.64.41-1.3.04-1.95-.22-.4-.48-.78-.74-1.16-.56-.82-.75-1.66-.28-2.59.22-.43.39-.88.58-1.32.39-.9.14-1.67-.52-2.33-.29-.29-.59-.59-.89-.88-.61-.59-.92-1.28-.73-2.14.11-.51.22-1.02.31-1.53.17-1.01-.11-1.77-1.03-2.2-1.7-.79-2.47-1.99-2.33-3.91.09-1.32-.36-1.89-1.68-2.19-1.79-.4-2.68-1.45-2.99-3.21-.21-1.21-.72-1.59-1.91-1.71-2.25-.21-2.56.16-3.94-2.55-.46-.9-1.22-1.27-2.24-1.08-.41.08-.83.12-1.24.2-.91.16-1.69-.04-2.3-.79-.27-.34-.59-.65-.88-.97-.63-.7-1.39-.89-2.27-.57-.51.19-1.01.4-1.51.61-.71.29-1.39.24-2.03-.18-.31-.21-.64-.4-.94-.61-1.32-.94-1.95-.99-3.19.04-1.22,1.02-2.44,1.21-3.85.43-1.08-.6-2.12-.59-2.98.44-.24.29-.41.26-.61-.07-1.28-2.06-2.58-4.1-3.85-6.15-.45-.72-.4-1.08.22-1.65,1.47-1.33,2.95-2.65,4.42-3.97.99-.89,2-1.77,2.98-2.67.62-.57.68-1.19.17-1.69-1.28-1.29-2.58-2.56-3.86-3.84-1.92-1.91-3.84-3.83-5.75-5.75-1.55-1.55-3.09-3.1-4.65-4.64-.54-.53-1.11-.59-1.55-.19-.47.43-.37.92-.18,1.44,1.38,3.9,2.73,7.8,4.12,11.69.24.66.18,1.16-.29,1.71-2.02,2.34-4,4.71-5.99,7.08-.57.68-.55,1.15.1,1.73,1.66,1.49,3.32,2.98,4.99,4.46,1.29,1.15,2.59,2.3,3.88,3.45.17.15.39.29.06.53-.6.44-.99,1.06-1.35,1.7-.52.92-1.24,1.49-2.37,1.42-.48-.03-.96-.01-1.44.02-.76.05-1.37.34-1.66,1.11-.19.49-.39.97-.59,1.45-.35.88-.93,1.46-1.91,1.6-.49.07-.98.18-1.47.3-.78.19-1.27.68-1.46,1.47-.1.43-.2.85-.26,1.29-.14,1.14-.77,1.84-1.86,2.19-.46.15-.9.34-1.32.56-.59.31-.96.8-1,1.49-.02.4-.07.8-.03,1.19.14,1.31-.42,2.19-1.54,2.82-1.86,1.04-2.06,1.41-1.58,3.65.03.16.05.33.08.49.15.78-.06,1.44-.64,1.99-.39.37-.77.76-1.17,1.13-.75.69-.82,1.49-.46,2.4.15.37.38.73.38,1.31-.85-.71-1.62-1.27-2.38-1.85-3-2.29-5.97-4.62-8.96-6.92-.82-.63-1.26-.57-1.91.22-1.96,2.39-3.91,4.78-5.85,7.19-.39.48-.8.63-1.41.54-4.14-.65-8.29-1.27-12.44-1.91-.58-.09-1.11-.06-1.38.55-.27.62.05,1.03.54,1.37,1.2.83,2.4,1.66,3.6,2.49,2.06,1.42,4.11,2.84,6.17,4.26,2.16,1.48,4.34,2.95,6.49,4.45.87.61,1.49.53,2.02-.36,1.66-2.77,3.32-5.53,4.99-8.29.49-.82.9-.95,1.77-.6,2.15.85,4.3,1.72,6.46,2.54.51.2.9.39.8,1.04-.03.22.1.44.19.65.24.54.61.99.93,1.49.47.74.59,1.5.2,2.31-.15.3-.27.61-.41.91-.61,1.26-.55,1.79.38,2.83.24.26.49.51.75.75.73.66,1.02,1.45.8,2.42-.13.55-.23,1.1-.31,1.66-.1.65.11,1.2.65,1.59.39.28.77.58,1.19.81,1,.53,1.53,1.31,1.49,2.47-.02.46.03.92.05,1.37.05.79.47,1.33,1.19,1.61.5.2,1.02.37,1.53.53.82.26,1.36.77,1.58,1.62.07.28.16.56.23.84.42,1.69.85,2.05,2.57,2.17.1,0,.21.02.31.02,1.26-.03,2.16.51,2.65,1.7.07.17.18.33.27.49.68,1.25,1.19,1.63,2.57,1.3,1.8-.44,3.08.06,4.19,1.5.77,1,1.43,1.06,2.62.59.19-.08.39-.15.58-.25,1.23-.67,2.32-.49,3.4.4,1.35,1.12,2.13,1.09,3.52.04.18-.14.38-.26.56-.4.82-.64,1.69-.64,2.59-.21.21.1.42.19.63.29,1.28.59,1.99.46,2.98-.54.24-.24.46-.49.68-.74.67-.77,1.49-1.01,2.48-.78.51.12,1.02.2,1.54.26.67.08,1.24-.14,1.64-.7.33-.46.63-.93.92-1.42.51-.86,1.26-1.24,2.24-1.21.25,0,.5,0,.75.02,1.5.05,2.14-.25,2.55-1.67.5-1.72,1.52-2.54,3.28-2.72,1.37-.14,1.88-.63,2-2,.17-1.84,1.05-2.89,2.81-3.35,1.15-.3,1.7-1.13,1.57-2.3-.2-1.77.42-3.01,2.08-3.76,1.13-.51,1.47-1.47,1.17-2.66-.03-.14-.04-.29-.09-.43-.49-1.45.06-2.51,1.2-3.38.18-.14.35-.3.51-.46.68-.66.81-1.43.47-2.29-.15-.39-.29-.78-.46-1.16-.41-.93-.29-1.78.34-2.58.31-.39.58-.82.86-1.23Z"/>
      <path class="cls-5" d="M90.79,63.54c.57.46.76,1.2.48,1.99-1.18,3.39-2.37,6.77-3.56,10.16-.53,1.52-1.07,3.03-1.58,4.55-.15.44-.38.75-.79.98-4.5,2.58-9,5.18-13.5,7.77-.88.5-1.59.41-2.26-.27-.48-.49-.54-1.26-.16-1.91.17-.28.41-.47.69-.63,4.1-2.37,8.2-4.73,12.31-7.08.54-.31.87-.7,1.07-1.29,1.53-4.46,3.09-8.91,4.65-13.36.43-1.22,1.73-1.66,2.65-.91Z"/>
      <path class="cls-1" d="M82.62,61.35c-.21-2.21-1.31-3.97-2.99-5.38-1.36-1.16-2.92-1.83-4.7-2-3.85-.37-6.63,2.57-6.01,6.38.09.54-.01.7-.6.71-3.56.07-5.89,2.88-5.29,6.37.11.62-.05.72-.64.72-3.46.02-5.92,3.04-5.24,6.42.66,3.28,2.72,5.37,5.78,6.51,1.08.4,2.23.52,3.39.32,3.18-.55,5.02-3.14,4.47-6.32-.09-.51-.01-.76.55-.7.12.01.25,0,.37-.02,3.31-.22,5.57-3.06,5-6.27q-.14-.79.66-.82c3.32-.13,5.56-2.63,5.25-5.93Z"/>
      <path class="cls-5" d="M59.49,77.36c-.5-.47-.94-1.08-1.11-1.87-.29-1.33.49-2.37,1.85-2.45,1.6-.1,3.38,1.37,3.61,2.97.2,1.39-.76,2.41-2.16,2.3-.8-.06-1.49-.38-2.18-.95Z"/>
      <path class="cls-5" d="M74.73,59.27c.68.64,1.19,1.38,1.24,2.36.06,1.1-.66,1.94-1.75,2.05-1.75.18-3.66-1.44-3.77-3.19-.08-1.2.75-2.08,1.96-2.08.87,0,1.62.35,2.31.86Z"/>
      <path class="cls-5" d="M68.47,66.78c.7.68,1.22,1.41,1.27,2.4.05,1.09-.68,1.93-1.77,2.04-1.68.16-3.53-1.34-3.73-3.02-.16-1.33.69-2.27,2.03-2.25.85.01,1.56.38,2.21.84Z"/>
    </g>
  </g>
</svg>