<?xml version="1.0" encoding="UTF-8"?>
<svg id="Layer_1" data-name="Layer 1" xmlns="http://www.w3.org/2000/svg" viewBox="0 0 119.73 117.27">
  <defs>
    <style>
      .cls-1 {
        fill: #d0d0d0;
      }

      .cls-2 {
        fill: #02fe42;
      }

      .cls-3 {
        fill: #333;
      }
    </style>
  </defs>
  <g id="_電仔獸_C_本體" data-name=" 電仔獸 C 本體">
    <g>
      <path class="cls-2" d="M110.38,72.04c.44-.64.41-1.3.04-1.95-.22-.4-.48-.78-.74-1.16-.56-.82-.75-1.66-.28-2.59.22-.43.39-.88.58-1.32.39-.9.14-1.67-.52-2.33-.29-.29-.59-.59-.89-.88-.61-.59-.92-1.28-.73-2.14.11-.51.22-1.02.31-1.53.17-1.01-.11-1.77-1.03-2.2-1.7-.79-2.47-1.99-2.33-3.91.09-1.32-.36-1.89-1.68-2.19-1.79-.4-2.68-1.45-2.99-3.21-.21-1.21-.72-1.59-1.91-1.71-2.25-.21-2.56.16-3.94-2.55-.46-.9-1.22-1.27-2.24-1.08-.41.08-.83.12-1.24.2-.91.16-1.69-.04-2.3-.79-.27-.34-.59-.65-.88-.97-.63-.7-1.39-.89-2.27-.57-.51.19-1.01.4-1.51.61-.71.29-1.39.24-2.03-.18-.31-.21-.64-.4-.94-.61-1.32-.94-1.95-.99-3.19.04-1.22,1.02-2.44,1.21-3.85.43-1.08-.6-2.12-.59-2.98.44-.24.29-.41.26-.61-.07-1.28-2.06-2.58-4.1-3.85-6.15-.45-.72-.4-1.08.22-1.65,1.47-1.33,2.95-2.65,4.42-3.97.99-.89,2-1.77,2.98-2.67.62-.57.68-1.19.17-1.69-1.28-1.29-2.58-2.56-3.86-3.84-1.92-1.91-3.84-3.83-5.75-5.75-1.55-1.55-3.09-3.1-4.65-4.64-.54-.53-1.11-.59-1.55-.19-.47.43-.37.92-.18,1.44,1.38,3.9,2.73,7.8,4.12,11.69.24.66.18,1.16-.29,1.71-2.02,2.34-4,4.71-5.99,7.08-.57.68-.55,1.15.1,1.73,1.66,1.49,3.32,2.98,4.99,4.46,1.29,1.15,2.59,2.3,3.88,3.45.17.15.39.29.06.53-.6.44-.99,1.06-1.35,1.7-.52.92-1.24,1.49-2.37,1.42-.48-.03-.96,0-1.44.02-.76.05-1.37.34-1.66,1.11-.19.49-.39.97-.59,1.45-.35.88-.93,1.46-1.91,1.6-.49.07-.98.18-1.47.3-.78.19-1.27.68-1.46,1.47-.1.43-.2.85-.26,1.29-.14,1.14-.77,1.84-1.86,2.19-.46.15-.9.34-1.32.56-.59.31-.96.8-1,1.49-.02.4-.07.8-.03,1.19.14,1.31-.42,2.19-1.54,2.82-1.86,1.04-2.06,1.41-1.58,3.65.03.16.05.33.08.49.15.78-.06,1.44-.64,1.99-.39.37-.77.76-1.17,1.13-.75.69-.82,1.49-.46,2.4.15.37.38.73.38,1.31-.85-.71-1.62-1.27-2.38-1.85-3-2.29-5.97-4.62-8.96-6.92-.82-.63-1.26-.57-1.91.22-1.96,2.39-3.91,4.78-5.85,7.19-.39.48-.8.63-1.41.54-4.14-.65-8.29-1.27-12.44-1.91-.58-.09-1.11-.06-1.38.55-.27.62.05,1.03.54,1.37,1.2.83,2.4,1.66,3.6,2.49,2.06,1.42,4.11,2.84,6.17,4.26,2.16,1.48,4.34,2.95,6.49,4.45.87.61,1.49.53,2.02-.36,1.66-2.77,3.32-5.53,4.99-8.29.49-.82.9-.95,1.77-.6,2.15.85,4.3,1.72,6.46,2.54.51.2.9.39.8,1.04-.03.22.1.44.19.65.24.54.61.99.93,1.49.47.74.59,1.5.2,2.31-.15.3-.27.61-.41.91-.61,1.26-.55,1.79.38,2.83.24.26.49.51.75.75.73.66,1.02,1.45.8,2.42-.13.55-.23,1.1-.31,1.66-.1.65.11,1.2.65,1.59.39.28.77.58,1.19.81,1,.53,1.53,1.31,1.49,2.47-.02.46.03.92.05,1.37.05.79.47,1.33,1.19,1.61.5.2,1.02.37,1.53.53.82.26,1.36.77,1.58,1.62.07.28.16.56.23.84.42,1.69.85,2.05,2.57,2.17.1,0,.21.02.31.02,1.26-.03,2.16.51,2.65,1.7.07.17.18.33.27.49.68,1.25,1.19,1.63,2.57,1.3,1.8-.44,3.08.06,4.19,1.5.77,1,1.43,1.06,2.62.59.19-.08.39-.15.58-.25,1.23-.67,2.32-.49,3.4.4,1.35,1.12,2.13,1.09,3.52.04.18-.14.38-.26.56-.4.82-.64,1.69-.64,2.59-.21.21.1.42.19.63.29,1.28.59,1.99.46,2.98-.54.24-.24.46-.49.68-.74.67-.77,1.49-1.01,2.48-.78.51.12,1.02.2,1.54.26.67.08,1.24-.14,1.64-.7.33-.46.63-.93.92-1.42.51-.86,1.26-1.24,2.24-1.21.25,0,.5,0,.75.02,1.5.05,2.14-.25,2.55-1.67.5-1.72,1.52-2.54,3.28-2.72,1.37-.14,1.88-.63,2-2,.17-1.84,1.05-2.89,2.81-3.35,1.15-.3,1.7-1.13,1.57-2.3-.2-1.77.42-3.01,2.08-3.76,1.13-.51,1.47-1.47,1.17-2.66-.03-.14-.04-.29-.09-.43-.49-1.45.06-2.51,1.2-3.38.18-.14.35-.3.51-.46.68-.66.81-1.43.47-2.29-.15-.39-.29-.78-.46-1.16-.41-.93-.29-1.78.34-2.58.31-.39.58-.82.86-1.23l.05-.02Z"/>
      <path class="cls-3" d="M90.77,63.55c.57.46.76,1.2.48,1.99-1.18,3.39-2.37,6.77-3.56,10.16-.53,1.52-1.07,3.03-1.58,4.55-.15.44-.38.75-.79.98-4.5,2.58-9,5.18-13.5,7.77-.88.5-1.59.41-2.26-.27-.48-.49-.54-1.26-.16-1.91.17-.28.41-.47.69-.63,4.1-2.37,8.2-4.73,12.31-7.08.54-.31.87-.7,1.07-1.29,1.53-4.46,3.09-8.91,4.65-13.36.43-1.22,1.73-1.66,2.65-.91Z"/>
      <path class="cls-1" d="M82.6,61.36c-.21-2.21-1.31-3.97-2.99-5.38-1.36-1.16-2.92-1.83-4.7-2-3.85-.37-6.63,2.57-6.01,6.38.09.54-.01.7-.6.71-3.56.07-5.89,2.88-5.29,6.37.11.62-.05.72-.64.72-3.46.02-5.92,3.04-5.24,6.42.66,3.28,2.72,5.37,5.78,6.51,1.08.4,2.23.52,3.39.32,3.18-.55,5.02-3.14,4.47-6.32-.09-.51-.01-.76.55-.7.12.01.25,0,.37-.02,3.31-.22,5.57-3.06,5-6.27-.09-.53.13-.8.66-.82,3.32-.13,5.56-2.63,5.25-5.93h0Z"/>
      <path class="cls-3" d="M59.47,77.37c-.5-.47-.94-1.08-1.11-1.87-.29-1.33.49-2.37,1.85-2.45,1.6-.1,3.38,1.37,3.61,2.97.2,1.39-.76,2.41-2.16,2.3-.8-.06-1.49-.38-2.18-.95h0Z"/>
      <path class="cls-3" d="M74.71,59.28c.68.64,1.19,1.38,1.24,2.36.06,1.1-.66,1.94-1.75,2.05-1.75.18-3.66-1.44-3.77-3.19-.08-1.2.75-2.08,1.96-2.08.87,0,1.62.35,2.31.86h.01Z"/>
      <path class="cls-3" d="M68.45,66.79c.7.68,1.22,1.41,1.27,2.4.05,1.09-.68,1.93-1.77,2.04-1.68.16-3.53-1.34-3.73-3.02-.16-1.33.69-2.27,2.03-2.25.85.01,1.56.38,2.21.84h0Z"/>
    </g>
  </g>
</svg>