<?xml version="1.0" encoding="UTF-8"?>
<svg id="Layer_1" data-name="Layer 1" xmlns="http://www.w3.org/2000/svg" viewBox="0 0 106.69 106.16">
  <defs>
    <style>
      .cls-1 {
        fill: #fff;
        isolation: isolate;
        opacity: .3;
      }
    </style>
  </defs>
  <g id="_電仔獸_B_光暈2" data-name=" 電仔獸 B 光暈2">
    <path class="cls-1" d="M94.2,19.62c-2.08-5.28-7.54-8.56-13.31-7.95-.11,0-.23.03-.34.04l-11.96,1.6c-3.58.48-6.83,2.44-8.92,5.39-.2.28-.39.58-.58.89-14.1-3.78-28.97.54-37.96,12.09-12.23,15.69-8.53,39.1,8.26,52.17,7.18,5.59,15.81,8.58,24.57,8.58.95,0,1.9-.04,2.86-.11,10.18-.76,19.13-5.46,25.19-13.25,8.17-10.49,9.27-24.43,4-36.46,1.38-2.05,2.2-4.51,2.23-7.12l1.22-.83c.13-.09.25-.17.38-.27,4.69-3.5,6.45-9.43,4.36-14.75Z"/>
  </g>
</svg>