<?xml version="1.0" encoding="UTF-8"?>
<svg id="Layer_1" data-name="Layer 1" xmlns="http://www.w3.org/2000/svg" viewBox="0 0 119.73 117.27">
  <defs>
    <style>
      .cls-1 {
        fill: #fff;
        isolation: isolate;
        opacity: .31;
      }
    </style>
  </defs>
  <g id="_電仔獸_C_光暈2" data-name=" 電仔獸 C 光暈2">
    <path class="cls-1" d="M118.84,66.86c.78-3.07.18-6.26-1.65-8.89.1-3.32-1.2-6.35-3.59-8.45-.61-3.24-2.57-5.86-5.51-7.38-1.35-2.93-3.85-5.01-7.07-5.84-2.04-2.56-5.03-4.02-8.3-4.06-2.58-1.96-5.81-2.68-8.99-1.97-.56-.25-1.13-.46-1.7-.62.93-1.52,1.44-3.24,1.48-5.02.06-2.73-.99-5.32-2.96-7.31-.78-.79-1.57-1.57-2.36-2.35l-8.39-8.37c-1.19-1.19-2.37-2.37-3.56-3.55-3.92-3.87-9.89-4.08-13.88-.5-1.18,1.05-4.85,4.97-2.67,11.14l1.52,4.31c.4,1.15.81,2.31,1.22,3.46-.84.99-1.67,1.98-2.5,2.98l-.79.94c-3.7,4.4-3.3,10.37.96,14.21.27.24.53.48.8.72-.08.12-.16.24-.23.37-2.85,1.11-5.03,3.31-6.15,6.21-2.64,1.62-4.43,4.24-4.97,7.24-.49.44-.93.91-1.31,1.4-.22-.17-.44-.34-.66-.51-4.71-3.63-10.62-2.95-14.38,1.65l-.49.6c-.89,1.09-1.78,2.18-2.67,3.27-1.3-.2-2.6-.4-3.89-.59l-4.31-.66c-4.81-.74-9.12,1.56-11,5.85-1.95,4.47-.43,9.56,3.69,12.39.81.55,1.61,1.11,2.42,1.67l3,2.07c1.45,1,2.91,2.01,4.36,3.01.8.55,1.6,1.09,2.4,1.64,1.35.92,2.7,1.83,4.03,2.77,3.39,2.37,6.6,2.14,8.22,1.8,2.2-.47,4.15-1.67,5.64-3.44.25.49.54.97.87,1.44-.13,3.21,1.18,6.29,3.6,8.42.63,3.2,2.64,5.91,5.55,7.45,1.42,3.01,3.8,4.99,7.02,5.84,2.12,2.64,5.02,4.06,8.27,4.08,2.51,1.98,5.63,2.68,8.91,1.98,1.46.67,2.96,1.01,4.48,1.01s3.06-.34,4.56-1.02c3.1.65,6.12,0,8.73-1.88,3.14.08,6.09-1.21,8.17-3.54,3.12-.58,5.63-2.31,7.23-4.94,2.94-1.1,5.12-3.28,6.2-6.21,2.61-1.61,4.38-4.19,4.95-7.21,2.26-2.05,3.52-4.92,3.53-8.05,1.87-2.49,2.57-5.59,1.97-8.65,1.36-2.78,1.45-6,.23-8.9h-.03Z"/>
  </g>
</svg>