<?xml version="1.0" encoding="UTF-8"?>
<svg id="Layer_1" data-name="Layer 1" xmlns="http://www.w3.org/2000/svg" viewBox="0 0 110.83 89.47">
  <defs>
    <style>
      .cls-1 {
        fill: #d0d0d0;
      }

      .cls-2 {
        fill: #4d4d4d;
      }

      .cls-3 {
        fill: #02fe42;
      }
    </style>
  </defs>
  <g id="_電仔獸_A_本體" data-name=" 電仔獸 A 本體">
    <path class="cls-3" d="M100.6,48.59c-4.05-3.22-8.02-6.55-12.22-9.55-2.2-1.57-2.25-2.98-1.08-5.16,1.94-3.62,3.64-7.38,5.44-11.08-.17-.22-.34-.43-.51-.65-3.28,1.06-6.59,2.07-9.85,3.19-3.56,1.22-3.58,1.23-3.67-2.43-.07-2.91-.24-5.83-.22-8.74.01-1.93-.59-2.15-2.1-1.12-3.11,2.12-6.34,4.05-9.34,6.31-2.09,1.57-3.62,1.59-5.63-.21-3.57-3.19-7.48-6.01-11.1-9.15-1.67-1.45-2.52-1.41-3.56.62-2.41,4.68-5.04,9.25-7.49,13.91-.91,1.73-2.01,2.33-4.03,2.03-5.12-.76-10.28-1.21-15.41-1.84-1.63-.2-2.27.13-1.67,1.89,1.26,3.64,2.33,7.35,3.67,10.96.68,1.82.37,2.99-1.23,4.06-3.36,2.24-6.67,4.57-9.98,6.89-.66.46-1.83.75-1.61,1.7.2.86,1.38.82,2.17,1.07,4.04,1.29,8.05,2.68,12.14,3.77,2.38.64,2.65,1.62,1.69,3.74-2.52,5.57-4.88,11.21-7.26,16.84-.35.83-1.41,1.78-.72,2.54.73.81,1.92.05,2.86-.25,6.8-2.19,13.61-4.37,20.38-6.66,2.11-.71,3.68-.59,5.22,1.26,1.92,2.3,4.24,4.27,6.22,6.52,1.58,1.8,2.71,1.96,4.47.07,3.19-3.44,6.72-6.57,10.03-9.92,1.29-1.3,2.42-1.72,4.2-.83,2.43,1.22,5.07,2.02,7.55,3.16,1.61.74,2.34.39,2.85-1.3,1.09-3.6,2.34-7.16,3.53-10.73.39-1.17.84-2.19,2.18-2.73,4.63-1.85,9.21-3.82,13.81-5.76.58-.24,1.44-.2,1.53-1.01.09-.78-.74-1.03-1.23-1.42h-.03Z"/>
    <path class="cls-1" d="M60.08,38.38c-2.15-5.54-9.65-7.37-13.5-2.22-1.1,1.48-1.89.42-2.8-.14-3.96-2.43-7.98-1.75-10.51,1.71-1.94,2.66-2.63,5.65-2.11,8.82.63,3.91,2.45,7.13,6.37,8.64,3.47,1.34,6.25-.02,8.56-2.57,1.09-1.21,1.76-.3,2.61.23,4.34,2.73,8.77,1.67,11.29-2.79,2.03-3.6,2.08-7.33.09-11.7v.02Z"/>
    <path class="cls-2" d="M51.06,37.71c1.79-.58,3.18.46,4.09,2.32,1.11,2.27.27,5.69-1.65,6.46-2.18.88-3.6-.29-4.5-2.16-1.14-2.37-.29-5.5,2.06-6.62Z"/>
    <path class="cls-2" d="M41.37,41.07c1.17,2.46.39,5.9-1.39,6.85-1.52.8-3.79-.21-4.63-2.08-1.08-2.39-.25-5.57,1.75-6.45,2.12-.93,3.34.32,4.28,1.68h0Z"/>
  </g>
</svg>