<?xml version="1.0" encoding="UTF-8"?>
<svg id="Layer_1" xmlns="http://www.w3.org/2000/svg" version="1.1" viewBox="0 0 60.5 60.2">
  <!-- Generator: Adobe Illustrator 29.0.1, SVG Export Plug-In . SVG Version: 2.1.0 Build 192)  -->
  <defs>
    <style>
      .st0 {
        fill: #231815;
      }

      .st1 {
        fill: #01ff42;
      }

      .st2 {
        fill: none;
        stroke: #231815;
        stroke-linecap: round;
        stroke-miterlimit: 10;
        stroke-width: 1.9px;
      }

      .st3 {
        fill: #d1d0d0;
      }
    </style>
  </defs>
  <g id="_電仔獸_B_本體">
    <g>
      <path class="st1" d="M59.7,0l-12.2,1.6c-.6,0-1,.6-.9,1.2l1.4,5.3c.2.7-.2,1.4-.8,1.6l-5.6,1.9C29.9,4,14.9,5.6,7,15.8-1.4,26.5,1.4,42.6,13.3,51.8c11.8,9.2,28.2,8,36.5-2.7,8.1-10.4,5.7-25.8-5.2-35.1.7-.2,1.4-.4,2.1-.5l5.9-.6c.5,0,.9-.5.9-1.1l-.5-5.9,7.1-4.9c.8-.6.2-1.1-.5-1.1h0Z"/>
      <path class="st2" d="M16.7,33.6s.6,5.1,5,7.9c4.5,2.9,7.7,2.6,7.7,2.6"/>
      <g>
        <ellipse class="st3" cx="25.9" cy="24.1" rx="7.2" ry="4.7" transform="translate(-9.2 28.7) rotate(-50.3)"/>
        <ellipse class="st0" cx="26.7" cy="23.7" rx="2.8" ry="1.8" transform="translate(-8.6 29.1) rotate(-50.3)"/>
        <ellipse class="st3" cx="31.6" cy="28.7" rx="7.2" ry="4.7" transform="translate(-10.7 34.7) rotate(-50.3)"/>
        <ellipse class="st0" cx="32.4" cy="28.4" rx="2.8" ry="1.8" transform="translate(-10.1 35.2) rotate(-50.3)"/>
        <ellipse class="st3" cx="37.5" cy="33.6" rx="7.2" ry="4.7" transform="translate(-12.3 41) rotate(-50.3)"/>
        <ellipse class="st0" cx="38.3" cy="33.3" rx="2.8" ry="1.8" transform="translate(-11.8 41.5) rotate(-50.3)"/>
      </g>
    </g>
  </g>
</svg>