<?xml version="1.0" encoding="UTF-8"?>
<svg id="Layer_1" data-name="Layer 1" xmlns="http://www.w3.org/2000/svg" viewBox="0 0 110.83 89.47">
  <defs>
    <style>
      .cls-1 {
        fill: #fff;
      }

      .cls-2 {
        opacity: .3;
      }
    </style>
  </defs>
  <g id="_電仔獸_A_光暈2" data-name=" 電仔獸 A 光暈2" class="cls-2">
    <path class="cls-1" d="M105.95,41.34c-.89-.71-1.78-1.42-2.66-2.14-1.99-1.6-4.02-3.24-6.11-4.84.73-1.48,1.43-2.94,2.11-4.38.51-1.08,1.03-2.16,1.55-3.23,1.51-3.1,1.11-6.79-1.02-9.5l-.52-.66c-2.33-2.95-6.25-4.15-9.83-2.99-.66.21-1.32.42-1.98.63.03-5.96-3.27-8.6-5.24-9.65-1.97-1.05-6.01-2.31-10.93,1.05-1.07.73-2.16,1.44-3.25,2.15-1.13.74-2.29,1.49-3.45,2.28-1.19-.98-2.37-1.93-3.53-2.85-1.71-1.37-3.33-2.66-4.87-3.99-3.06-2.66-6.31-3.67-9.66-3.03-3.35.65-5.97,2.77-7.8,6.32-1.27,2.46-2.59,4.87-3.99,7.42-.59,1.08-1.19,2.17-1.78,3.25-2.13-.27-4.25-.5-6.32-.73-1.92-.21-3.83-.42-5.75-.66-5.51-.68-8.52,1.92-9.83,3.54-1.31,1.61-3.23,5.08-1.46,10.23.49,1.42.95,2.84,1.41,4.27.29.92.59,1.85.9,2.79-1.92,1.32-3.83,2.66-5.69,3.96l-.55.39C-1.13,44.7-.05,51.02.24,52.27c.44,1.88,2.15,6.39,8.47,7.68.92.29,1.83.59,2.75.89.81.26,1.62.53,2.45.79-1.22,2.81-2.4,5.62-3.56,8.37l-.71,1.68c-4,6.47-.49,11.21.69,12.52,1.43,1.59,5.5,5.01,12.27,2.31l2.04-.66c5.24-1.69,10.64-3.42,16.03-5.22.62.64,1.22,1.24,1.79,1.81.9.9,1.75,1.74,2.46,2.55,2.57,2.93,5.55,4.44,8.85,4.48h.16c3.25,0,6.22-1.42,8.83-4.23,1.73-1.86,3.6-3.66,5.58-5.56.56-.54,1.13-1.08,1.7-1.64.43.17.84.33,1.25.49,1.04.4,2.02.78,2.87,1.18,4.06,1.87,7.29,1.2,9.29.3,1.99-.9,4.65-2.86,5.95-7.16.74-2.45,1.56-4.87,2.43-7.44l.42-1.25c2.75-1.12,5.47-2.28,8.12-3.4l3-1.27c6.18-1.78,7.23-6.92,7.4-8.49.2-1.84.14-6.42-4.83-9.66h.01Z"/>
  </g>
</svg>