<?xml version="1.0" encoding="UTF-8"?>
<svg id="Layer_1" data-name="Layer 1" xmlns="http://www.w3.org/2000/svg" viewBox="0 0 110.83 89.47">
  <defs>
    <style>
      .cls-1 {
        fill: #fff;
        isolation: isolate;
        opacity: .5;
      }
    </style>
  </defs>
  <g id="_電仔獸_A_光暈1" data-name=" 電仔獸 A 光暈1">
    <path class="cls-1" d="M103.12,45.47l-.09-.06c-.96-.77-1.92-1.54-2.89-2.32-3.01-2.43-6.12-4.93-9.36-7.25.01-.02.02-.05.04-.07,1.41-2.63,2.7-5.33,3.94-7.95.47-.98.93-1.96,1.4-2.93.77-1.59.57-3.49-.53-4.88h0c-1.2-1.52-3.21-2.14-5.05-1.54-.86.28-1.71.55-2.57.82-1.76.56-3.56,1.13-5.36,1.73-.02-.44-.03-.88-.05-1.33-.07-1.9-.13-3.7-.12-5.5.02-2.54-.85-4.3-2.58-5.22-1.73-.92-3.67-.66-5.77.77-1.1.75-2.22,1.48-3.34,2.21-2.03,1.32-4.13,2.69-6.15,4.2-.12.09-.23.16-.31.22-.07-.06-.15-.12-.25-.21-2-1.79-4.09-3.46-6.11-5.07-1.75-1.4-3.41-2.72-5.02-4.12-.76-.66-2.77-2.41-5.44-1.89-2.66.51-3.89,2.91-4.3,3.7-1.3,2.52-2.7,5.07-4.05,7.54-1.07,1.95-2.14,3.91-3.18,5.88-.12.23-.38.36-.64.33-3.08-.44-6.19-.79-9.2-1.12-1.94-.21-3.88-.43-5.82-.67-.88-.11-3.57-.44-5.33,1.72-1.16,1.43-1.37,3.27-.62,5.45.5,1.45.97,2.91,1.44,4.37.62,1.91,1.25,3.88,1.96,5.84.1.27,0,.57-.24.73-2.84,1.91-5.66,3.88-8.39,5.8l-.76.54c-.06.04-.13.07-.2.11-3.42,1.84-3.39,4.44-3.07,5.83.49,2.09,2.05,3.41,4.63,3.93.09.02.18.03.22.04,1.02.32,2.03.66,3.05.99,2.3.75,4.66,1.52,7.05,2.21.37.11.55.51.4.86-1.9,4.27-3.73,8.59-5.5,12.8l-.85,2.01-.07.13c-2.24,3.42-.95,5.72,0,6.78,1.62,1.8,3.88,2.14,6.71,1.01.12-.05.23-.1.34-.13l2.01-.65c6.04-1.94,12.29-3.95,18.43-6.03.34-.11.55-.16.67-.18.05.05.11.11.19.21,1.15,1.38,2.39,2.61,3.59,3.79.97.96,1.88,1.86,2.7,2.8,1.03,1.18,2.69,2.75,5.16,2.78h.08c2.72,0,4.56-1.98,5.17-2.63,1.82-1.97,3.75-3.81,5.78-5.77,1.23-1.18,2.5-2.4,3.74-3.65.19-.19.47-.23.71-.12,1.27.59,2.53,1.08,3.77,1.56,1.11.43,2.16.84,3.16,1.3,1.89.87,3.62.97,5.14.28,2.3-1.03,2.99-3.3,3.21-4.05.77-2.52,1.63-5.1,2.47-7.59.34-1.01.68-2.03,1.02-3.04.06-.17.1-.29.13-.38,3.42-1.37,6.86-2.82,10.18-4.23l3.31-1.4.06-.02c3.17-.83,3.88-3.04,4.02-4.29.16-1.41-.18-3.42-2.69-4.98h.02Z"/>
  </g>
</svg>