<?xml version="1.0" encoding="UTF-8"?>
<svg id="Layer_1" data-name="Layer 1" xmlns="http://www.w3.org/2000/svg" viewBox="0 0 60.5 60.25">
  <defs>
    <style>
      .cls-1 {
        fill: #231815;
      }

      .cls-2 {
        fill: #01ff42;
      }

      .cls-3 {
        fill: none;
        stroke: #231815;
        stroke-linecap: round;
        stroke-miterlimit: 10;
        stroke-width: 1.85px;
      }

      .cls-4 {
        fill: #d1d0d0;
      }
    </style>
  </defs>
  <g id="_電仔獸_B_本體" data-name=" 電仔獸 B 本體">
    <g>
      <path class="cls-2" d="M50.86,9l-8.92,1.19c-.42.06-.7.45-.62.87l1.05,3.88c.13.49-.13,1-.61,1.16l-4.11,1.41c-8.46-5.59-19.43-4.41-25.19,2.98-6.07,7.8-4.02,19.56,4.59,26.27,8.61,6.71,20.52,5.82,26.59-1.98,5.87-7.54,4.12-18.78-3.78-25.58.5-.16,1.01-.29,1.54-.34l4.31-.43c.39-.04.69-.37.67-.77l-.36-4.33,5.17-3.56c.57-.42.16-.83-.34-.77h0Z"/>
      <path class="cls-3" d="M19.55,33.47s.42,3.68,3.65,5.76c3.25,2.1,5.62,1.92,5.62,1.92"/>
      <g>
        <ellipse class="cls-4" cx="26.28" cy="26.53" rx="5.24" ry="3.42" transform="translate(-10.92 29.83) rotate(-50.34)"/>
        <ellipse class="cls-1" cx="26.87" cy="26.25" rx="2.06" ry="1.34" transform="translate(-10.49 30.18) rotate(-50.34)"/>
        <ellipse class="cls-4" cx="30.38" cy="29.93" rx="5.24" ry="3.42" transform="translate(-12.05 34.22) rotate(-50.34)"/>
        <ellipse class="cls-1" cx="30.98" cy="29.65" rx="2.06" ry="1.34" transform="translate(-11.62 34.58) rotate(-50.34)"/>
        <ellipse class="cls-4" cx="34.69" cy="33.5" rx="5.24" ry="3.42" transform="translate(-13.24 38.83) rotate(-50.34)"/>
        <ellipse class="cls-1" cx="35.28" cy="33.23" rx="2.06" ry="1.34" transform="translate(-12.82 39.18) rotate(-50.34)"/>
      </g>
    </g>
  </g>
</svg>