<?xml version="1.0" encoding="UTF-8" standalone="no"?>
<svg
   width="525"
   height="800"
   fill="none"
   viewBox="0 0 525 800"
   version="1.1"
   id="svg386"
   sodipodi:docname="login_logo.svg"
   inkscape:version="1.2.1 (9c6d41e, 2022-07-14)"
   inkscape:export-filename="login_logo_portal.png"
   inkscape:export-xdpi="96"
   inkscape:export-ydpi="96"
   xmlns:inkscape="http://www.inkscape.org/namespaces/inkscape"
   xmlns:sodipodi="http://sodipodi.sourceforge.net/DTD/sodipodi-0.dtd"
   xmlns="http://www.w3.org/2000/svg"
   xmlns:svg="http://www.w3.org/2000/svg">
  <sodipodi:namedview
     id="namedview388"
     pagecolor="#ffffff"
     bordercolor="#666666"
     borderopacity="1.0"
     inkscape:showpageshadow="2"
     inkscape:pageopacity="0.0"
     inkscape:pagecheckerboard="0"
     inkscape:deskcolor="#d1d1d1"
     showgrid="false"
     inkscape:zoom="1.02125"
     inkscape:cx="202.20318"
     inkscape:cy="352.01958"
     inkscape:window-width="1390"
     inkscape:window-height="967"
     inkscape:window-x="0"
     inkscape:window-y="25"
     inkscape:window-maximized="0"
     inkscape:current-layer="g715" />
  <g
     id="g715"
     transform="translate(18.267498,-4.0000114)">
    <g
       filter="url(#a)"
       id="g319">
      <path
         fill="#d4d4d4"
         d="m 87.449,509.158 c 48.296,0 87.448,-39.153 87.448,-87.45 0,-48.296 -39.152,-87.449 -87.448,-87.449 C 39.152,334.259 0,373.412 0,421.708 c 0,48.297 39.152,87.45 87.449,87.45 z"
         id="path317" />
    </g>
    <g
       filter="url(#b)"
       id="g325">
      <path
         fill="#8f8f8f"
         d="M 334.657,367.57 118.226,619.73 c -31.456,36.648 -27.247,91.858 9.401,123.314 36.649,31.456 91.858,27.246 123.314,-9.402 l 216.431,-252.16 c 31.456,-36.649 27.246,-91.858 -9.402,-123.314 -36.648,-31.456 -91.857,-27.247 -123.313,9.402 z"
         id="path321" />
      <path
         stroke="#ffffff"
         d="m 118.605,620.056 216.431,-252.16 c 31.276,-36.439 86.17,-40.625 122.608,-9.349 36.439,31.276 40.624,86.17 9.349,122.609 l -216.432,252.16 c -31.276,36.439 -86.169,40.625 -122.608,9.348 -36.439,-31.276 -40.624,-86.169 -9.348,-122.608 z"
         id="path323" />
    </g>
    <g
       filter="url(#c)"
       id="g331">
      <path
         fill="#8f8f8f"
         d="m 271.823,66.358 -102.52,119.444 c -31.456,36.649 -27.246,91.858 9.402,123.314 36.648,31.456 91.857,27.247 123.313,-9.402 L 404.538,180.27 C 435.994,143.622 431.785,88.412 395.136,56.956 358.488,25.5 303.279,29.71 271.823,66.358 Z"
         id="path327" />
      <path
         stroke="#ffffff"
         d="M 169.683,186.128 272.203,66.684 c 31.276,-36.44 86.169,-40.624 122.608,-9.348 36.438,31.276 40.624,86.169 9.348,122.608 l -102.52,119.445 c -31.276,36.439 -86.17,40.624 -122.608,9.348 -36.439,-31.276 -40.624,-86.17 -9.348,-122.609 z"
         id="path329" />
    </g>
  </g>
  <defs
     id="defs384">
    <filter
       id="a"
       width="182.897"
       height="182.898"
       x="-4"
       y="334.259"
       color-interpolation-filters="sRGB"
       filterUnits="userSpaceOnUse">
      <feFlood
         flood-opacity="0"
         result="BackgroundImageFix"
         id="feFlood333" />
      <feColorMatrix
         in="SourceAlpha"
         result="hardAlpha"
         values="0 0 0 0 0 0 0 0 0 0 0 0 0 0 0 0 0 0 127 0"
         id="feColorMatrix335" />
      <feOffset
         dy="4"
         id="feOffset337" />
      <feGaussianBlur
         stdDeviation="2"
         id="feGaussianBlur339" />
      <feComposite
         in2="hardAlpha"
         operator="out"
         id="feComposite341" />
      <feColorMatrix
         values="0 0 0 0 0 0 0 0 0 0 0 0 0 0 0 0 0 0 0.25 0"
         id="feColorMatrix343" />
      <feBlend
         in2="BackgroundImageFix"
         result="effect1_dropShadow_167_100"
         id="feBlend345" />
      <feBlend
         in="SourceGraphic"
         in2="effect1_dropShadow_167_100"
         result="shape"
         id="feBlend347" />
    </filter>
    <filter
       id="b"
       width="399.332"
       height="435.062"
       x="93.133"
       y="337.075"
       color-interpolation-filters="sRGB"
       filterUnits="userSpaceOnUse">
      <feFlood
         flood-opacity="0"
         result="BackgroundImageFix"
         id="feFlood350" />
      <feColorMatrix
         in="SourceAlpha"
         result="hardAlpha"
         values="0 0 0 0 0 0 0 0 0 0 0 0 0 0 0 0 0 0 127 0"
         id="feColorMatrix352" />
      <feOffset
         dy="4"
         id="feOffset354" />
      <feGaussianBlur
         stdDeviation="2"
         id="feGaussianBlur356" />
      <feComposite
         in2="hardAlpha"
         operator="out"
         id="feComposite358" />
      <feColorMatrix
         values="0 0 0 0 0 0 0 0 0 0 0 0 0 0 0 0 0 0 0.25 0"
         id="feColorMatrix360" />
      <feBlend
         in2="BackgroundImageFix"
         result="effect1_dropShadow_167_100"
         id="feBlend362" />
      <feBlend
         in="SourceGraphic"
         in2="effect1_dropShadow_167_100"
         result="shape"
         id="feBlend364" />
    </filter>
    <filter
       id="c"
       width="285.42"
       height="302.346"
       x="144.21"
       y="35.863"
       color-interpolation-filters="sRGB"
       filterUnits="userSpaceOnUse">
      <feFlood
         flood-opacity="0"
         result="BackgroundImageFix"
         id="feFlood367" />
      <feColorMatrix
         in="SourceAlpha"
         result="hardAlpha"
         values="0 0 0 0 0 0 0 0 0 0 0 0 0 0 0 0 0 0 127 0"
         id="feColorMatrix369" />
      <feOffset
         dy="4"
         id="feOffset371" />
      <feGaussianBlur
         stdDeviation="2"
         id="feGaussianBlur373" />
      <feComposite
         in2="hardAlpha"
         operator="out"
         id="feComposite375" />
      <feColorMatrix
         values="0 0 0 0 0 0 0 0 0 0 0 0 0 0 0 0 0 0 0.25 0"
         id="feColorMatrix377" />
      <feBlend
         in2="BackgroundImageFix"
         result="effect1_dropShadow_167_100"
         id="feBlend379" />
      <feBlend
         in="SourceGraphic"
         in2="effect1_dropShadow_167_100"
         result="shape"
         id="feBlend381" />
    </filter>
  </defs>
</svg>
