<svg xmlns="http://www.w3.org/2000/svg" width="802" height="916" fill="none" viewBox="0 0 802 916">
  <g opacity=".7">
    <circle cx="429.53" cy="110.878" r="109.378" fill="#E9E9E9" stroke="#555" stroke-width="3"/>
    <mask id="a" fill="#fff">
      <path fill-rule="evenodd" d="M.975 311.489c0-26.773 21.704-48.477 48.477-48.477h332.117c1.361 0 2.708.056 4.041.166a91.42 91.42 0 0 1 5.51-.166h77.855c49.706 0 90 40.295 90 90v289.297c0 .264-.001.529-.003.793v267.127c0 26.488-21.473 47.961-47.962 47.961-26.488 0-47.961-21.473-47.961-47.961v-177.92h-66.011v177.92c0 26.488-21.473 47.961-47.961 47.961s-47.961-21.473-47.961-47.961V617.305c0-.211.001-.422.004-.633V359.966H49.452c-26.773 0-48.477-21.704-48.477-48.477Z" clip-rule="evenodd"/>
    </mask>
    <path fill="#E9E9E9" fill-rule="evenodd" d="M.975 311.489c0-26.773 21.704-48.477 48.477-48.477h332.117c1.361 0 2.708.056 4.041.166a91.42 91.42 0 0 1 5.51-.166h77.855c49.706 0 90 40.295 90 90v289.297c0 .264-.001.529-.003.793v267.127c0 26.488-21.473 47.961-47.962 47.961-26.488 0-47.961-21.473-47.961-47.961v-177.92h-66.011v177.92c0 26.488-21.473 47.961-47.961 47.961s-47.961-21.473-47.961-47.961V617.305c0-.211.001-.422.004-.633V359.966H49.452c-26.773 0-48.477-21.704-48.477-48.477Z" clip-rule="evenodd"/>
    <path fill="#555" d="m385.61 263.178-.247 2.99.213.018.214-.013-.18-2.995Zm173.362 379.924-3-.026v.026h3Zm-95.923 89.207h3v-3h-3v3Zm-66.011 0v-3h-3v3h3ZM301.12 616.672l2.999.039.001-.019v-.02h-3Zm0-256.706h3v-3h-3v3ZM49.452 260.012c-28.43 0-51.477 23.047-51.477 51.477h6c0-25.116 20.36-45.477 45.477-45.477v-6Zm332.117 0H49.452v6h332.117v-6Zm4.287.176a52.428 52.428 0 0 0-4.287-.176v6c1.279 0 2.544.053 3.794.156l.493-5.98Zm5.264-.176c-1.911 0-3.809.058-5.691.172l.361 5.989a87.971 87.971 0 0 1 5.33-.161v-6Zm77.855 0H391.12v6h77.855v-6Zm93 93c0-51.362-41.637-93-93-93v6c48.049 0 87 38.952 87 87h6Zm0 289.297V353.012h-6v289.297h6Zm-.004.818c.003-.272.004-.545.004-.818h-6c0 .256-.001.511-.003.767l5.999.051Zm.001 267.102V643.102h-6v267.127h6ZM511.01 961.19c28.146 0 50.962-22.816 50.962-50.961h-6c0 24.831-20.13 44.961-44.962 44.961v6Zm-50.961-50.961c0 28.145 22.816 50.961 50.961 50.961v-6c-24.831 0-44.961-20.13-44.961-44.961h-6Zm0-177.92v177.92h6v-177.92h-6Zm-63.011 3h66.011v-6h-66.011v6Zm3 174.92v-177.92h-6v177.92h6Zm-50.961 50.961c28.145 0 50.961-22.816 50.961-50.961h-6c0 24.831-20.13 44.961-44.961 44.961v6Zm-50.961-50.961c0 28.145 22.816 50.961 50.961 50.961v-6c-24.832 0-44.961-20.13-44.961-44.961h-6Zm0-292.924v292.924h6V617.305h-6Zm.004-.671a49.93 49.93 0 0 0-.004.671h6l.003-.594-5.999-.077Zm0-256.668v256.706h6V359.966h-6Zm-248.668 3H301.12v-6H49.452v6Zm-51.477-51.477c0 28.43 23.047 51.477 51.477 51.477v-6c-25.116 0-45.477-20.361-45.477-45.477h-6Z" mask="url(#a)"/>
    <path fill="#555" d="m367.689 615.978-94.663-66.122-9.932 115.043 104.595-48.921Zm-5.538-416.963c-170.643 2.266-266.971 90.323-282.07 188.782-15.114 98.561 52.193 201.44 196.015 230.249l3.928-19.61C144.538 571.296 86.669 476.783 99.85 390.829c13.196-86.056 98.634-169.638 262.567-171.816l-.266-19.998Zm151.16 10.994 94.61 66.198 10.024-115.034-104.634 48.836Zm5.538 416.963c169.996-2.258 265.96-90.259 281.06-188.65 15.113-98.476-51.797-201.363-194.953-230.301l-3.963 19.603c134.764 27.242 192.338 121.717 179.148 207.665-13.204 86.033-98.328 169.517-261.558 171.685l.266 19.998Z" opacity=".7"/>
  </g>
</svg>
