<?xml version="1.0" encoding="UTF-8" standalone="no"?>
<svg
   width="872"
   height="959"
   fill="none"
   viewBox="0 0 872 959"
   version="1.1"
   id="svg145"
   sodipodi:docname="mimic_player.svg"
   inkscape:version="1.2.1 (9c6d41e, 2022-07-14)"
   xmlns:inkscape="http://www.inkscape.org/namespaces/inkscape"
   xmlns:sodipodi="http://sodipodi.sourceforge.net/DTD/sodipodi-0.dtd"
   xmlns="http://www.w3.org/2000/svg"
   xmlns:svg="http://www.w3.org/2000/svg">
  <defs
     id="defs149" />
  <sodipodi:namedview
     id="namedview147"
     pagecolor="#ffffff"
     bordercolor="#666666"
     borderopacity="1.0"
     inkscape:showpageshadow="2"
     inkscape:pageopacity="0.0"
     inkscape:pagecheckerboard="0"
     inkscape:deskcolor="#d1d1d1"
     showgrid="false"
     inkscape:zoom="0.62126246"
     inkscape:cx="385.50535"
     inkscape:cy="451.5"
     inkscape:window-width="1390"
     inkscape:window-height="1027"
     inkscape:window-x="0"
     inkscape:window-y="25"
     inkscape:window-maximized="0"
     inkscape:current-layer="svg145" />
  <g
     opacity="0.7"
     id="g143"
     transform="translate(13.6215,0.4055)">
    <circle
       cx="435.79501"
       cy="110.878"
       r="109.378"
       fill="#e9e9e9"
       stroke="#555555"
       stroke-width="3"
       id="circle132" />
    <mask
       id="a"
       fill="#ffffff">
      <path
         fill-rule="evenodd"
         d="m 55.718,359.966 h 251.667 v 256.633 c -0.003,0.235 -0.005,0.47 -0.005,0.706 v 292.923 c 0,26.489 21.473,47.961 47.961,47.961 26.488,0 47.961,-21.472 47.961,-47.961 v -177.92 h 66.012 v 177.92 c 0,26.489 21.473,47.961 47.961,47.961 26.488,0 47.961,-21.472 47.961,-47.961 V 643.149 c 0.003,-0.28 0.004,-0.56 0.004,-0.841 V 353.012 c 0,-49.705 -40.294,-90 -90,-90 h -77.855 c -1.85,0 -3.688,0.056 -5.51,0.166 a 49.11,49.11 0 0 0 -4.04,-0.166 H 55.718 c -26.774,0 -48.477,21.704 -48.477,48.477 0,26.773 21.704,48.477 48.477,48.477 z"
         clip-rule="evenodd"
         id="path134" />
    </mask>
    <path
       fill="#e9e9e9"
       fill-rule="evenodd"
       d="m 55.718,359.966 h 251.667 v 256.633 c -0.003,0.235 -0.005,0.47 -0.005,0.706 v 292.923 c 0,26.489 21.473,47.961 47.961,47.961 26.488,0 47.961,-21.472 47.961,-47.961 v -177.92 h 66.012 v 177.92 c 0,26.489 21.473,47.961 47.961,47.961 26.488,0 47.961,-21.472 47.961,-47.961 V 643.149 c 0.003,-0.28 0.004,-0.56 0.004,-0.841 V 353.012 c 0,-49.705 -40.294,-90 -90,-90 h -77.855 c -1.85,0 -3.688,0.056 -5.51,0.166 a 49.11,49.11 0 0 0 -4.04,-0.166 H 55.718 c -26.774,0 -48.477,21.704 -48.477,48.477 0,26.773 21.704,48.477 48.477,48.477 z"
       clip-rule="evenodd"
       id="path137" />
    <path
       fill="#555555"
       d="m 307.385,359.966 h 3 v -3 h -3 z m 0,256.633 3,0.043 v -0.043 z m 95.917,115.709 v -3 h -3 v 3 z m 66.012,0 h 3 v -3 h -3 z m 95.922,-89.159 -2.999,-0.027 -10e-4,0.013 v 0.014 z m -173.361,-379.971 -0.247,2.99 0.213,0.018 0.214,-0.013 z m -84.49,93.788 H 55.718 v 6 h 251.667 z m 3,259.633 V 359.966 h -6 v 256.633 z m -6,-0.044 c -0.003,0.25 -0.005,0.5 -0.005,0.75 h 6 c 0,-0.221 0.002,-0.442 0.005,-0.663 z m -0.005,0.75 v 292.923 h 6 V 617.305 Z m 0,292.923 c 0,28.145 22.816,50.961 50.961,50.961 v -6 c -24.831,0 -44.961,-20.129 -44.961,-44.961 z m 50.961,50.961 c 28.145,0 50.961,-22.816 50.961,-50.961 h -6 c 0,24.832 -20.13,44.961 -44.961,44.961 z m 50.961,-50.961 v -177.92 h -6 v 177.92 z m 63.012,-180.92 h -66.012 v 6 h 66.012 z m -3,3 v 177.92 h 6 v -177.92 z m 0,177.92 c 0,28.145 22.816,50.961 50.961,50.961 v -6 c -24.831,0 -44.961,-20.129 -44.961,-44.961 z m 50.961,50.961 c 28.145,0 50.961,-22.816 50.961,-50.961 h -6 c 0,24.832 -20.129,44.961 -44.961,44.961 z m 50.961,-50.961 V 643.149 h -6 v 267.079 z m -5.996,-267.92 c 0,0.272 -10e-4,0.543 -0.003,0.814 l 5.999,0.055 c 0.003,-0.29 0.004,-0.579 0.004,-0.869 z m 0,-289.296 v 289.296 h 6 V 353.012 Z m -87,-87 c 48.049,0 87,38.951 87,87 h 6 c 0,-51.362 -41.637,-93 -93,-93 z m -77.855,0 h 77.855 v -6 h -77.855 z m -5.33,0.161 a 87.971,87.971 0 0 1 5.33,-0.161 v -6 c -1.911,0 -3.808,0.058 -5.691,0.172 z m -4.22,-0.161 c 1.278,0 2.543,0.053 3.793,0.156 l 0.493,-5.98 a 52.404,52.404 0 0 0 -4.286,-0.176 z m -332.117,0 h 332.117 v -6 H 55.718 Z M 10.24,311.489 c 0,-25.116 20.36,-45.477 45.477,-45.477 v -6 c -28.43,0 -51.477,23.047 -51.477,51.477 z m 45.477,45.477 C 30.6,356.966 10.24,336.605 10.24,311.489 h -6 c 0,28.43 23.047,51.477 51.477,51.477 z"
       mask="url(#a)"
       id="path139" />
    <path
       fill="#555555"
       d="m 341.914,487.69 c 5.478,-0.701 10.488,3.172 11.189,8.65 0.701,5.478 -3.171,10.487 -8.649,11.188 z m -186.269,-31.52 5.333,-8.459 z M 37.905,305.156 136.058,365.979 34.307,420.57 37.906,305.156 Z m 305.279,192.453 c 1.27,9.919 1.266,9.92 1.262,9.92 l -0.009,0.002 a 0.66,0.66 0 0 1 -0.026,0.003 l -0.081,0.01 -0.27,0.032 c -0.228,0.027 -0.553,0.064 -0.97,0.109 -0.833,0.089 -2.037,0.209 -3.583,0.34 -3.091,0.261 -7.552,0.565 -13.155,0.754 -11.197,0.377 -26.998,0.293 -45.559,-1.538 -37.035,-3.652 -85.585,-14.308 -130.481,-42.611 l 10.666,-16.919 c 41.395,26.096 86.615,36.16 121.777,39.627 17.537,1.729 32.441,1.805 42.924,1.452 5.238,-0.176 9.361,-0.459 12.144,-0.694 a 137.779,137.779 0 0 0 3.899,-0.383 12.837,12.837 0 0 0 0.199,-0.023 l 0.001,-10e-4 -0.003,10e-4 c -0.002,0 -0.005,0 1.265,9.919 z M 150.312,464.63 C 116.606,443.381 91.074,416.039 72.365,390.338 l 16.169,-11.77 c 17.632,24.22 41.406,49.576 72.444,69.143 z m 379.596,23.06 c -5.478,-0.701 -10.487,3.172 -11.188,8.65 -0.702,5.478 3.171,10.487 8.649,11.188 z m 186.27,-31.52 -5.333,-8.459 z M 833.917,305.156 735.765,365.979 837.516,420.57 Z M 528.639,497.609 c -1.27,9.919 -1.267,9.92 -1.263,9.92 l 0.01,0.002 a 0.66,0.66 0 0 0 0.026,0.003 l 0.08,0.01 0.271,0.032 c 0.228,0.027 0.552,0.064 0.969,0.109 0.834,0.089 2.038,0.209 3.584,0.34 3.091,0.261 7.552,0.565 13.154,0.754 11.198,0.377 26.998,0.293 45.56,-1.538 37.035,-3.652 85.584,-14.308 130.48,-42.611 l -10.665,-16.919 c -41.396,26.096 -86.616,36.16 -121.778,39.627 -17.536,1.729 -32.441,1.805 -42.923,1.452 A 242.264,242.264 0 0 1 534,488.096 a 137.993,137.993 0 0 1 -3.899,-0.383 l -0.169,-0.02 a 0.346,0.346 0 0 0 -0.03,-0.003 l -0.001,-10e-4 0.002,10e-4 c 0.003,0 0.005,0 -1.264,9.919 z M 721.51,464.63 c 33.707,-21.249 59.239,-48.591 77.948,-74.292 l -16.169,-11.77 c -17.632,24.22 -41.407,49.576 -72.444,69.143 z"
       id="path141" />
  </g>
</svg>
