<?xml version="1.0" encoding="UTF-8"?>
<svg id="_水管_泡泡" data-name="水管_泡泡" xmlns="http://www.w3.org/2000/svg" viewBox="0 0 5646.96 2687.83">
  <defs>
    <style>
      .cls-1 {
        fill: #64c0ff;
      }
    </style>
  </defs>
  <circle class="cls-1" cx="2631.18" cy="764.31" r="7.01"/>
  <circle class="cls-1" cx="2673.29" cy="889.92" r="7.95"/>
  <circle class="cls-1" cx="2563.11" cy="502.8" r="8.35"/>
  <circle class="cls-1" cx="2672.93" cy="866.86" r="6.78"/>
  <circle class="cls-1" cx="2704.04" cy="965.68" r="9.62"/>
  <circle class="cls-1" cx="2768.12" cy="1128.92" r="8.75"/>
  <circle class="cls-1" cx="2718.74" cy="996.29" r="8.21"/>
  <circle class="cls-1" cx="2827.53" cy="1267.05" r="7.04"/>
  <circle class="cls-1" cx="2837.5" cy="1287.81" r="6.01"/>
  <circle class="cls-1" cx="2805.91" cy="1215.25" r="6.27"/>
  <circle class="cls-1" cx="2603.1" cy="619.5" r="9.62"/>
  <circle class="cls-1" cx="2687.55" cy="901.69" r="3.97"/>
  <circle class="cls-1" cx="2804.7" cy="1226.71" r="3.38"/>
  <circle class="cls-1" cx="2610.01" cy="658.5" r="4.11"/>
  <circle class="cls-1" cx="2763.12" cy="1107.17" r="4.11"/>
  <circle class="cls-1" cx="2580.34" cy="534.33" r="4.11"/>
  <circle class="cls-1" cx="2472.98" cy="493.19" r="9.62"/>
  <circle class="cls-1" cx="2152.49" cy="504.9" r="5.84"/>
  <circle class="cls-1" cx="2305.65" cy="499.43" r="8.22"/>
  <circle class="cls-1" cx="2346.96" cy="499.43" r="4.11"/>
  <circle class="cls-1" cx="2186.12" cy="512.12" r="4.11"/>
  <circle class="cls-1" cx="2192.39" cy="503.21" r="4.11"/>
  <circle class="cls-1" cx="2265.62" cy="503.53" r="4.11"/>
  <circle class="cls-1" cx="2412.75" cy="491.96" r="4.11"/>
</svg>